<mxfile host="app.diagrams.net" modified="2022-06-19T07:49:50.071Z" agent="5.0 (Macintosh; Intel Mac OS X 10_15_7) AppleWebKit/537.36 (KHTML, like Gecko) Chrome/102.0.0.0 Safari/537.36" etag="8QLJD8khYU5M21X2XW7e" version="20.0.1" type="github">
  <diagram id="GOOAz55GzeQP_C9ly7qH" name="Page-1">
    <mxGraphModel dx="2066" dy="1128" grid="1" gridSize="10" guides="1" tooltips="1" connect="1" arrows="1" fold="1" page="1" pageScale="1" pageWidth="850" pageHeight="1100" math="0" shadow="0">
      <root>
        <mxCell id="0" />
        <mxCell id="1" parent="0" />
        <mxCell id="pB3f8ysNDWPirbb6lI0W-4" style="edgeStyle=orthogonalEdgeStyle;rounded=0;orthogonalLoop=1;jettySize=auto;html=1;entryX=0.5;entryY=0;entryDx=0;entryDy=0;entryPerimeter=0;" edge="1" parent="1" source="pB3f8ysNDWPirbb6lI0W-1" target="pB3f8ysNDWPirbb6lI0W-2">
          <mxGeometry relative="1" as="geometry" />
        </mxCell>
        <mxCell id="pB3f8ysNDWPirbb6lI0W-5" value="Connect to DB" style="edgeLabel;html=1;align=center;verticalAlign=middle;resizable=0;points=[];" vertex="1" connectable="0" parent="pB3f8ysNDWPirbb6lI0W-4">
          <mxGeometry x="-0.3125" relative="1" as="geometry">
            <mxPoint as="offset" />
          </mxGeometry>
        </mxCell>
        <mxCell id="pB3f8ysNDWPirbb6lI0W-1" value="Client" style="rounded=0;whiteSpace=wrap;html=1;" vertex="1" parent="1">
          <mxGeometry x="60" y="50" width="110" height="60" as="geometry" />
        </mxCell>
        <mxCell id="pB3f8ysNDWPirbb6lI0W-2" value="Database" style="shape=cylinder3;whiteSpace=wrap;html=1;boundedLbl=1;backgroundOutline=1;size=15;" vertex="1" parent="1">
          <mxGeometry x="380" y="160" width="60" height="80" as="geometry" />
        </mxCell>
      </root>
    </mxGraphModel>
  </diagram>
</mxfile>
